<svg aria-hidden="true" style="position: absolute; width: 0; height: 0; overflow: hidden;" version="1.1" xmlns="http://www.w3.org/2000/svg" xmlns:xlink="http://www.w3.org/1999/xlink">
<defs>
<symbol id="icon-logout" viewBox="0 0 32 32">
<title>logout</title>
<path d="M11.363 31.923c-0.679-0.184-1.18-0.73-1.312-1.433-0.040-0.211-0.068-1.627-0.068-3.422v-3.062h4.006v4.006h14.022v-24.038h-14.022v4.006h-4.013l0.020-3.289c0.019-3.174 0.025-3.299 0.16-3.589 0.208-0.448 0.457-0.706 0.882-0.915l0.381-0.187h19.164l0.381 0.187c0.424 0.208 0.674 0.467 0.882 0.915l0.14 0.3v29.18l-0.14 0.3c-0.208 0.448-0.457 0.706-0.882 0.915l-0.381 0.187-9.448 0.013c-7.598 0.010-9.511-0.004-9.771-0.074zM3.973 19.965l-3.973-3.973 7.979-7.979v5.976h12.019v4.006h-12.018l-0.035 5.943-3.973-3.973z"></path>
</symbol>
<symbol id="icon-password" viewBox="0 0 25 32">
<title>password</title>
<path fill="#ccc" style="fill: var(--color1, #ccc)" d="M1.39 31.961c-0.582-0.1-1.067-0.496-1.278-1.045-0.108-0.281-0.112-0.594-0.112-8.692s0.004-8.411 0.112-8.692c0.134-0.347 0.451-0.715 0.746-0.865 0.384-0.196 0.865-0.239 2.679-0.239h1.764l0.029-3.072c0.032-3.366 0.049-3.556 0.404-4.563 0.358-1.014 0.848-1.815 1.579-2.58 2.018-2.113 4.987-2.774 7.72-1.72 0.909 0.35 1.796 0.954 2.528 1.72s1.221 1.566 1.579 2.58c0.354 1.003 0.371 1.198 0.404 4.563l0.030 3.072h1.764c1.813 0 2.295 0.043 2.678 0.239 0.295 0.151 0.613 0.519 0.746 0.865 0.108 0.281 0.112 0.594 0.112 8.692 0 8.12-0.004 8.41-0.113 8.694-0.15 0.389-0.501 0.759-0.883 0.932l-0.31 0.14-10.953 0.008c-6.024 0.005-11.076-0.012-11.225-0.038zM13.186 26.535c0.386-0.18 0.711-0.505 0.891-0.891l0.141-0.303v-6.234l-0.141-0.303c-0.308-0.662-0.895-1.032-1.639-1.032s-1.33 0.369-1.639 1.032l-0.141 0.303v6.234l0.141 0.303c0.308 0.662 0.895 1.032 1.639 1.032 0.344 0 0.514-0.032 0.748-0.141zM16 9.484c0-2.495-0.014-3.001-0.094-3.31-0.31-1.202-1.354-2.246-2.556-2.556-0.47-0.121-1.353-0.121-1.823 0-1.202 0.31-2.246 1.354-2.556 2.556-0.080 0.309-0.094 0.815-0.094 3.31v2.945h7.124v-2.945z"></path>
</symbol>
<symbol id="icon-username" viewBox="0 0 28 32">
<title>username</title>
<path fill="#ccc" style="fill: var(--color1, #ccc)" d="M0.002 29.078c0.003-3.884 0.066-4.517 0.569-5.711 0.776-1.842 2.464-3.352 4.802-4.296l0.53-0.214 0.538 0.438c1.515 1.234 3.277 2.066 5.281 2.495 0.653 0.14 0.909 0.157 2.304 0.157 1.387 0 1.655-0.018 2.304-0.155 1.971-0.416 3.75-1.257 5.284-2.495l0.541-0.437 0.527 0.213c2.741 1.106 4.553 2.97 5.134 5.279 0.187 0.743 0.229 1.608 0.233 4.726l0.003 2.922h-28.053l0.002-2.922zM13.325 17.906c-0.709-0.064-1.217-0.174-1.904-0.415-2.73-0.957-4.732-3.301-5.259-6.158-0.16-0.868-0.16-3.887 0-4.755 0.606-3.286 3.202-5.893 6.453-6.479 0.74-0.133 2.082-0.133 2.822 0 1.65 0.297 3.17 1.127 4.368 2.383 1.075 1.128 1.77 2.481 2.080 4.050 0.167 0.847 0.167 3.999 0 4.846-0.567 2.871-2.537 5.159-5.269 6.118-1.010 0.354-2.223 0.505-3.291 0.41z"></path>
</symbol>
</defs>
</svg>
