<?xml version="1.0" encoding="UTF-8" standalone="no"?>
<!-- Created with Inkscape (http://www.inkscape.org/) -->

<svg
   xmlns:dc="http://purl.org/dc/elements/1.1/"
   xmlns:cc="http://creativecommons.org/ns#"
   xmlns:rdf="http://www.w3.org/1999/02/22-rdf-syntax-ns#"
   xmlns:svg="http://www.w3.org/2000/svg"
   xmlns="http://www.w3.org/2000/svg"
   xmlns:sodipodi="http://sodipodi.sourceforge.net/DTD/sodipodi-0.dtd"
   xmlns:inkscape="http://www.inkscape.org/namespaces/inkscape"
   id="svg2"
   version="1.1"
   inkscape:version="0.91 r13725"
   width="420"
   height="479.08627"
   viewBox="0 0 420 479.08627"
   sodipodi:docname="username.svg">
  <metadata
     id="metadata8">
    <rdf:RDF>
      <cc:Work
         rdf:about="">
        <dc:format>image/svg+xml</dc:format>
        <dc:type
           rdf:resource="http://purl.org/dc/dcmitype/StillImage" />
        <dc:title />
      </cc:Work>
    </rdf:RDF>
  </metadata>
  <defs
     id="defs6" />
  <sodipodi:namedview
     pagecolor="#ffffff"
     bordercolor="#666666"
     borderopacity="1"
     objecttolerance="10"
     gridtolerance="10"
     guidetolerance="10"
     inkscape:pageopacity="0"
     inkscape:pageshadow="2"
     inkscape:window-width="1280"
     inkscape:window-height="657"
     id="namedview4"
     showgrid="false"
     fit-margin-top="0"
     fit-margin-left="0"
     fit-margin-right="0"
     fit-margin-bottom="0"
     inkscape:zoom="0.49166667"
     inkscape:cx="-347.90123"
     inkscape:cy="242.03389"
     inkscape:window-x="-8"
     inkscape:window-y="-8"
     inkscape:window-maximized="1"
     inkscape:current-layer="svg2" />
  <path
     style="fill:#cccccc;fill-opacity:1"
     d="M 0.03367,435.33627 C 0.07847,377.18853 1.02303,367.70458 8.5493103,349.83801 20.16493,322.26378 45.44364,299.65021 80.43965,285.52707 l 7.93966,-3.20417 8.06034,6.56417 c 22.68046,18.47046 49.06281,30.93319 79.06034,37.3472 9.77725,2.09055 13.61225,2.352 34.5,2.352 20.76909,0 24.7783,-0.27005 34.5,-2.3238 29.50673,-6.23343 56.14689,-18.81361 79.10612,-37.35596 l 8.10612,-6.54667 7.89388,3.1857 c 41.0392,16.56199 68.16981,44.45894 76.86949,79.04073 2.79724,11.11922 3.43429,24.06775 3.4808,70.75 l 0.0436,43.75 -210,0 -210,0 0.0337,-43.75 z M 199.49999,268.08206 c -10.61542,-0.95319 -18.22104,-2.61164 -28.5,-6.21459 -40.87692,-14.32805 -70.84747,-49.42142 -78.73029,-92.18753 -2.39423,-12.98922 -2.39423,-58.19812 0,-71.187332 9.06851,-49.198781 47.93522,-88.220793 96.60911,-96.995143 11.07582,-1.99662 31.16654,-1.99662 42.24236,0 24.70028,4.45267 47.46116,16.870944 65.39676,35.680276 16.0994,16.883685 26.50357,37.141864 31.14015,60.633647 2.50343,12.683912 2.50343,59.865852 0,72.549762 -8.48407,42.98551 -37.98148,77.23415 -78.88321,91.58912 -15.12021,5.30663 -33.28737,7.56736 -49.27488,6.13179 z"
     id="path4138"
     inkscape:connector-curvature="0" />
</svg>
